<svg viewBox="0 0 24 24" width="24" height="24" xmlns="http://www.w3.org/2000/svg" fill="none" role="img"><path fill="#fff" fill-opacity="0.9" d="M15.562 5.045c-.742.797-1.928 1.427-3.115 1.337-.148-1.079.433-2.225 1.112-2.933.742-.82 2.04-1.404 3.09-1.449.124 1.124-.358 2.225-1.087 3.045m1.075 1.55c-1.718-.09-3.189.888-4.005.888-.828 0-2.076-.843-3.436-.82-1.767.022-3.411.932-4.313 2.382-1.854 2.898-.482 7.19 1.31 9.55.877 1.168 1.928 2.449 3.312 2.404 1.31-.045 1.83-.775 3.412-.775 1.594 0 2.051.775 3.436.752 1.433-.022 2.336-1.168 3.213-2.337 1.001-1.325 1.41-2.617 1.434-2.685-.025-.022-2.769-.977-2.793-3.854-.025-2.404 2.163-3.55 2.261-3.617-1.235-1.663-3.164-1.843-3.831-1.888"></path></svg>