<svg viewBox="0 0 24 24" width="24" height="24" class="h-full w-full align-[unset] block" style="color:inherit;background-color:inherit" xmlns="http://www.w3.org/2000/svg" fill="none" role="img">
                                                <path fill="currentColor" fill-rule="evenodd" d="M15.6111 10.0556C15.6111 6.98742 13.1236 4.50003 10.0554 4.49997C6.98717 4.49997 4.49976 6.98738 4.49976 10.0556C4.49981 13.1238 6.98721 15.6113 10.0554 15.6113C11.6101 15.6113 13.0134 14.9737 14.0232 13.9433C15.0063 12.9401 15.6111 11.5698 15.6111 10.0556ZM18.1111 10.0556C18.1111 11.8068 17.5493 13.4275 16.6003 14.749L21.6414 19.873L21.7263 19.9687C22.1227 20.463 22.0881 21.1877 21.6267 21.6416C21.1653 22.0954 20.4405 22.1174 19.9529 21.7129L19.8582 21.6269L14.8455 16.5293C13.5067 17.5211 11.8498 18.1113 10.0554 18.1113C5.6065 18.1113 1.99981 14.5045 1.99976 10.0556C1.99976 5.60667 5.60646 1.99997 10.0554 1.99997C14.5043 2.00003 18.1111 5.60671 18.1111 10.0556Z" clip-rule="evenodd"></path>
                                            </svg>