<svg viewBox="0 0 24 24" width="24" height="24" xmlns="http://www.w3.org/2000/svg" fill="none" role="img"><g fill="#fff" fill-opacity="0.9"><path d="M12.006 3.802c2.673 0 2.99.012 4.041.058.977.043 1.505.208 1.857.344.465.18.801.4 1.149.747.352.352.567.684.746 1.15.137.35.301.882.344 1.856.047 1.055.06 1.372.06 4.041 0 2.674-.013 2.99-.06 4.042-.043.977-.207 1.504-.344 1.856-.18.465-.398.801-.746 1.15a3.1 3.1 0 0 1-1.15.746c-.35.136-.883.3-1.856.344-1.055.047-1.372.058-4.041.058-2.674 0-2.99-.011-4.042-.058-.977-.043-1.504-.207-1.856-.344a3.1 3.1 0 0 1-1.15-.747 3.1 3.1 0 0 1-.746-1.149c-.137-.352-.3-.883-.344-1.857-.047-1.055-.058-1.371-.058-4.041 0-2.673.011-2.99.058-4.041.043-.978.207-1.505.344-1.857.18-.465.399-.801.747-1.149a3.1 3.1 0 0 1 1.149-.747c.352-.136.883-.3 1.856-.344 1.052-.046 1.368-.058 4.042-.058m0-1.802c-2.717 0-3.057.012-4.124.059-1.063.047-1.794.219-2.427.465-.66.258-1.22.598-1.774 1.157a4.9 4.9 0 0 0-1.157 1.77c-.246.637-.418 1.364-.465 2.427C2.012 8.95 2 9.29 2 12.006s.012 3.056.059 4.123c.047 1.063.219 1.794.465 2.428.258.66.598 1.219 1.157 1.774a4.9 4.9 0 0 0 1.77 1.153c.637.246 1.364.418 2.427.465 1.067.047 1.408.059 4.124.059s3.056-.012 4.123-.059c1.064-.047 1.794-.219 2.428-.465a4.9 4.9 0 0 0 1.77-1.153 4.9 4.9 0 0 0 1.153-1.77c.247-.638.419-1.365.465-2.428.047-1.067.059-1.407.059-4.123s-.012-3.057-.059-4.124c-.046-1.063-.218-1.794-.465-2.427a4.7 4.7 0 0 0-1.145-1.778 4.9 4.9 0 0 0-1.77-1.153c-.638-.247-1.365-.419-2.428-.465-1.07-.051-1.41-.063-4.127-.063"></path><path d="M12.006 6.866a5.14 5.14 0 0 0-5.14 5.14 5.141 5.141 0 1 0 5.14-5.14m0 8.474a3.334 3.334 0 1 1 0-6.669 3.334 3.334 0 0 1 0 6.669M18.549 6.663a1.2 1.2 0 1 1-2.4 0 1.2 1.2 0 0 1 2.4 0"></path></g></svg>