<svg viewBox="0 0 24 24" width="24" height="24" xmlns="http://www.w3.org/2000/svg" fill="none" role="img"><g fill="#fff" fill-opacity="0.9"><path d="M3.82 3.313c-.202.214-.32.548-.32.98v15.414c0 .433.118.766.32.98l.05.048 8.567-8.635v-.203L3.871 3.262zM16.327 14.98l-2.853-2.88v-.203l2.856-2.88.064.038 3.382 1.94c.965.55.965 1.457 0 2.01l-3.382 1.938zM15.876 15.479l-2.92-2.944-8.617 8.689c.32.34.843.38 1.438.04zM15.876 8.518l-10.1-5.786c-.594-.336-1.116-.295-1.437.045l8.617 8.685z"></path></g></svg>