<svg viewBox="0 0 24 24" width="24" height="24" class="h-full w-full align-[unset] block" style="color:inherit;background-color:inherit" xmlns="http://www.w3.org/2000/svg" fill="none" role="img">
                                                <path fill="currentColor" fill-rule="evenodd" d="M11.9992 4.59229C13.788 2.84197 16.3817 2.23251 18.5959 3.188L18.5968 3.18702C20.725 4.10536 22.1015 6.31484 22.1408 8.70557L22.1398 8.93702C22.1027 10.8189 21.3095 12.391 20.3693 13.7417C18.2829 16.7425 15.3457 19.0496 12.5724 21.0689L11.9835 21.4976L11.3957 21.0689C8.61783 19.0462 5.71504 16.7397 3.63003 13.7407C2.74883 12.4746 1.99544 11.0145 1.87417 9.28663L1.85855 8.93702C1.80959 6.45848 3.20494 4.13497 5.40152 3.18702C7.6158 2.23099 10.21 2.84193 11.9992 4.59229Z" clip-rule="evenodd"></path>
                                            </svg>