<svg viewBox="0 0 24 24" width="24" height="24" class="h-full w-full align-[unset] block" style="color:inherit;background-color:inherit" xmlns="http://www.w3.org/2000/svg" fill="none" role="img">
                                                <path fill="currentColor" fill-rule="evenodd" d="M12 2a6 6 0 0 0-6 6v2H4.75a.75.75 0 0 0-.75.75v10.5c0 .414.336.75.75.75h14.5a.75.75 0 0 0 .75-.75v-10.5a.75.75 0 0 0-.75-.75H18V8a6 6 0 0 0-6-6m4 8V8a4 4 0 0 0-8 0v2zm-3 3.5a1 1 0 1 0-2 0v2a1 1 0 1 0 2 0z" clip-rule="evenodd"></path>
                                            </svg>