<svg viewBox="0 0 24 24" width="24" height="24" xmlns="http://www.w3.org/2000/svg" fill="none" role="img"><path fill="#fff" fill-opacity="0.9" fill-rule="evenodd" d="M20.936 6.067c.31.31.533.696.646 1.119C22 8.746 22 12 22 12s0 3.254-.418 4.814a2.5 2.5 0 0 1-.646 1.119c-.31.31-.698.534-1.122.65C18.25 19 12 19 12 19s-6.25 0-7.814-.418a2.5 2.5 0 0 1-1.122-.649 2.5 2.5 0 0 1-.646-1.119C2 15.254 2 12 2 12s0-3.254.418-4.814c.113-.423.336-.809.646-1.119s.698-.534 1.122-.65C5.75 5 12 5 12 5s6.25 0 7.814.418c.424.115.811.339 1.122.649M15.182 12 9.955 9.045v5.91z" clip-rule="evenodd"></path></svg>