<svg viewBox="0 0 24 24" width="24" height="24" class="h-full w-full align-[unset] block" style="color:inherit;background-color:inherit" xmlns="http://www.w3.org/2000/svg" fill="none" role="img">
                                                <path fill="currentColor" fill-rule="evenodd" d="M12 6.5C13.933 6.5 15.5 8.067 15.5 10C15.5 11.933 13.933 13.5 12 13.5C10.067 13.5 8.5 11.933 8.5 10C8.5 8.067 10.067 6.5 12 6.5Z" clip-rule="evenodd"></path>
                                                <path fill="currentColor" fill-rule="evenodd" d="M12 2C17.5228 2 22 6.47715 22 12C22 17.5228 17.5228 22 12 22C6.47715 22 2 17.5228 2 12C2 6.47715 6.47715 2 12 2ZM12 4C7.58172 4 4 7.58172 4 12C4 13.9789 4.71977 15.7889 5.91016 17.1855C7.41782 15.5366 9.58745 14.5 12 14.5C14.4123 14.5 16.5812 15.5369 18.0889 17.1855C19.2795 15.7889 20 13.9791 20 12C20 7.58172 16.4183 4 12 4Z" clip-rule="evenodd"></path>
                                            </svg>